<svg width="32" height="32" viewBox="0 0 32 32" fill="none" xmlns="http://www.w3.org/2000/svg">
<path d="M12.1804 27.6976V23.6207C12.1804 22.5799 13.0302 21.7362 14.0786 21.7362H17.9108C18.4142 21.7362 18.8971 21.9348 19.253 22.2882C19.609 22.6416 19.809 23.1209 19.809 23.6207V27.6976C19.8058 28.1303 19.9767 28.5463 20.2838 28.8534C20.5909 29.1605 21.0087 29.3332 21.4446 29.3332H24.0591C25.2802 29.3363 26.4523 28.857 27.3169 28.0009C28.1814 27.1449 28.6673 25.9825 28.6673 24.7703V13.1556C28.6673 12.1765 28.2301 11.2476 27.4735 10.6194L18.5794 3.56766C17.0322 2.33125 14.8155 2.37117 13.3145 3.66248L4.62333 10.6194C3.83097 11.2291 3.35739 12.1607 3.33398 13.1556V24.7584C3.33398 27.285 5.39716 29.3332 7.94222 29.3332H10.497C11.4023 29.3332 12.138 28.6081 12.1445 27.7095L12.1804 27.6976Z" fill="white"/>
</svg>
