<svg width="24" height="24" viewBox="0 0 24 24" fill="none" xmlns="http://www.w3.org/2000/svg">
<g clip-path="url(#clip0_117_1177)">
<path d="M12.6263 0C12.493 0.00162477 12.3656 0.0553789 12.2714 0.149782C12.2239 0.197273 12.1863 0.25366 12.1606 0.315723C12.1349 0.377785 12.1217 0.444307 12.1217 0.511487C12.1217 0.578666 12.1349 0.645189 12.1606 0.707251C12.1863 0.769313 12.2239 0.825701 12.2714 0.873191C12.3482 0.949792 12.4035 1.04536 12.4317 1.15023C12.4598 1.25509 12.4598 1.36554 12.4316 1.47039C12.4037 1.57534 12.3486 1.67105 12.2719 1.74785C12.1952 1.82465 12.0996 1.87981 11.9948 1.90776C11.8901 1.93598 11.7798 1.9362 11.6751 1.90803C11.5704 1.87986 11.4749 1.8245 11.3984 1.74754C11.3028 1.65159 11.173 1.59761 11.0376 1.59747C10.9022 1.59732 10.7723 1.65102 10.6764 1.74677C10.629 1.79426 10.5913 1.85064 10.5657 1.91271C10.54 1.97477 10.5267 2.04129 10.5267 2.10847C10.5267 2.17565 10.54 2.24217 10.5657 2.30423C10.5913 2.3663 10.629 2.42268 10.6764 2.47018C10.8993 2.69332 11.1818 2.84733 11.4899 2.91373V3.56485C10.7042 4.31299 9.93683 4.7034 9.25014 5.06501C8.53662 5.44053 7.83316 5.81528 7.52398 6.60169C7.49032 6.67121 7.47281 6.74746 7.47281 6.82472C7.47277 6.82833 7.47277 6.83194 7.47281 6.83555V16.458H7.04765C6.91224 16.4581 6.7824 16.512 6.68667 16.6079C6.59094 16.7038 6.53716 16.8338 6.53716 16.9694V20.7948C6.53721 20.9304 6.59099 21.0604 6.68672 21.1562C6.78244 21.2521 6.91228 21.3059 7.04765 21.306H7.47299V23.4886C7.47299 23.5557 7.4862 23.6222 7.51187 23.6843C7.53753 23.7463 7.57518 23.8027 7.6226 23.8502C7.67002 23.8977 7.72631 23.9353 7.78827 23.961C7.85023 23.9867 7.91661 24 7.98367 24H16.0177C16.1531 23.9999 16.283 23.946 16.3787 23.8501C16.4744 23.7542 16.5282 23.6242 16.5282 23.4886V21.306H16.9536C17.0889 21.3059 17.2187 21.252 17.3143 21.1561C17.41 21.0603 17.4638 20.9303 17.4639 20.7948V16.9694C17.4639 16.8339 17.4101 16.7038 17.3144 16.608C17.2187 16.5121 17.0889 16.4581 16.9536 16.458H16.5284V6.82472C16.5285 6.81777 16.5285 6.81081 16.5284 6.80385C16.5305 6.73323 16.5179 6.66295 16.4915 6.59744C16.1676 5.79614 15.448 5.43589 14.7217 5.05844C14.0383 4.7034 13.2808 4.31454 12.5115 3.56775V2.80472C12.7322 2.70465 12.9281 2.55686 13.085 2.37196C13.2419 2.18707 13.3559 1.96966 13.419 1.73537V1.73575C13.4933 1.45739 13.4932 1.16435 13.4187 0.886026C13.3443 0.607701 13.1981 0.353868 12.9947 0.149977C12.9466 0.101747 12.8893 0.0636481 12.8262 0.0379248C12.7631 0.0122016 12.6955 -0.000627947 12.6274 0.000191689L12.6263 0ZM11.9338 4.52211H12.0591C12.8552 5.22754 13.6372 5.64791 14.25 5.96622C14.4799 6.08566 14.6273 6.1821 14.7962 6.28376L9.14978 6.31217C9.32212 6.20317 9.47981 6.099 9.72453 5.97009C10.3352 5.64849 11.1242 5.22812 11.9338 4.52211ZM9.02646 7.33592H15.5061V16.458H14.1724V11.4205C14.1725 11.3466 14.1566 11.2736 14.1257 11.2065C13.9264 10.773 13.5417 10.6286 13.2399 10.4908C12.9384 10.353 12.6421 10.218 12.342 9.94679C12.2495 9.86315 12.1297 9.81627 12.0051 9.81498C11.8786 9.81365 11.7561 9.85938 11.6613 9.94331C11.3529 10.2166 11.051 10.3527 10.7459 10.4937C10.4409 10.6348 10.0486 10.7949 9.86542 11.2402C9.83991 11.3021 9.82681 11.3684 9.82683 11.4354V16.4578H8.49322V7.33882L9.02646 7.33592ZM21.6657 9.16637C21.6648 9.16643 21.664 9.1665 21.6632 9.16657C21.5908 9.16755 21.5195 9.1839 21.4539 9.21456C21.3884 9.24521 21.3301 9.28946 21.2829 9.34437C21.2392 9.39526 21.2058 9.45428 21.1848 9.51807C21.1638 9.58186 21.1556 9.64916 21.1606 9.71614C21.1656 9.78312 21.1837 9.84846 21.2139 9.90843C21.2441 9.9684 21.2857 10.0218 21.3366 10.0657C21.8542 10.5117 22.2691 11.0648 22.5526 11.6868C22.8361 12.3089 22.9815 12.9851 22.9788 13.6689C22.9761 14.3527 22.8254 15.0278 22.537 15.6476C22.2486 16.2674 21.8295 16.8172 21.3084 17.2591C21.2572 17.3026 21.215 17.3557 21.1843 17.4154C21.1536 17.4752 21.135 17.5404 21.1294 17.6073C21.1239 17.6743 21.1316 17.7417 21.1521 17.8057C21.1727 17.8697 21.2056 17.929 21.249 17.9802C21.3365 18.0836 21.4615 18.148 21.5964 18.1592C21.7313 18.1704 21.8651 18.1275 21.9685 18.0399C22.6021 17.5023 23.1118 16.8334 23.4625 16.0795C23.8132 15.3256 23.9965 14.5045 23.9998 13.6728C24.003 12.8412 23.8261 12.0188 23.4813 11.2622C23.1366 10.5056 22.6322 9.83286 22.0028 9.29026C21.9092 9.20956 21.7894 9.16561 21.6658 9.16657L21.6657 9.16637ZM2.33673 9.16657C2.21223 9.16495 2.09143 9.20894 1.99705 9.29026C1.36768 9.83285 0.863242 10.5056 0.518494 11.2622C0.173747 12.0188 -0.00314675 12.8412 4.2366e-05 13.6728C0.00333919 14.5045 0.186662 15.3256 0.537342 16.0795C0.888021 16.8334 1.39775 17.5023 2.03139 18.0399C2.08257 18.0834 2.14176 18.1163 2.20564 18.1368C2.26952 18.1573 2.33683 18.165 2.40368 18.1594C2.47053 18.1539 2.53563 18.1352 2.59527 18.1045C2.65491 18.0737 2.70794 18.0315 2.75128 17.9802C2.79464 17.929 2.82746 17.8696 2.84792 17.8057C2.86838 17.7417 2.87605 17.6743 2.87049 17.6074C2.86494 17.5404 2.84627 17.4752 2.81555 17.4155C2.78483 17.3558 2.74265 17.3027 2.69144 17.2593C2.17039 16.8174 1.75122 16.2675 1.46286 15.6477C1.17449 15.0279 1.02379 14.3528 1.02111 13.669C1.01844 12.9852 1.16386 12.309 1.44735 11.6869C1.73085 11.0648 2.14569 10.5117 2.66326 10.0657C2.7141 10.0218 2.75584 9.96843 2.78605 9.90846C2.81627 9.8485 2.83439 9.78316 2.83939 9.71618C2.84439 9.64921 2.83615 9.5819 2.81517 9.5181C2.79419 9.4543 2.76088 9.39527 2.71712 9.34437C2.66994 9.28946 2.61162 9.24521 2.54608 9.21456C2.48053 9.1839 2.40906 9.16755 2.33673 9.16657ZM19.8497 10.579C19.7752 10.5795 19.7016 10.5964 19.6343 10.6285C19.5669 10.6605 19.5074 10.707 19.4599 10.7645C19.3736 10.869 19.3322 11.0034 19.3448 11.1384C19.3575 11.2733 19.4232 11.3977 19.5274 11.4843C19.8463 11.7486 20.1029 12.0803 20.2788 12.4556C20.4547 12.8309 20.5454 13.2405 20.5447 13.6551C20.5439 14.0696 20.4517 14.4789 20.2745 14.8536C20.0973 15.2284 19.8397 15.5592 19.5199 15.8226C19.4681 15.8652 19.4251 15.9177 19.3936 15.977C19.362 16.0362 19.3424 16.1011 19.3359 16.168C19.3294 16.2349 19.3361 16.3023 19.3557 16.3666C19.3752 16.4308 19.4072 16.4906 19.4498 16.5425C19.5359 16.6472 19.6599 16.7135 19.7947 16.7266C19.9295 16.7398 20.0639 16.6988 20.1685 16.6126C20.6045 16.2535 20.9559 15.8023 21.1974 15.2914C21.439 14.7804 21.5648 14.2223 21.5659 13.657C21.5668 13.0917 21.4429 12.5331 21.2031 12.0213C20.9633 11.5095 20.6135 11.0571 20.1788 10.6965C20.0898 10.6228 19.9786 10.5814 19.8632 10.5792C19.8587 10.579 19.8542 10.579 19.8497 10.579ZM4.13625 10.579C4.02089 10.5813 3.90973 10.6228 3.82088 10.6965C3.38612 11.0571 3.03629 11.5095 2.79647 12.0213C2.55664 12.5331 2.43275 13.0916 2.4336 13.657C2.4347 14.2223 2.56052 14.7804 2.80208 15.2913C3.04363 15.8023 3.39496 16.2535 3.83092 16.6126C3.88272 16.6553 3.94241 16.6874 4.00658 16.7069C4.07075 16.7265 4.13814 16.7332 4.20491 16.7267C4.27167 16.7202 4.33646 16.7006 4.39564 16.669C4.45483 16.6374 4.50722 16.5944 4.54982 16.5425C4.59243 16.4906 4.62447 16.4308 4.64401 16.3666C4.66355 16.3023 4.67026 16.2349 4.66375 16.168C4.65725 16.1011 4.63764 16.0362 4.60608 15.977C4.57451 15.9177 4.53161 15.8652 4.4798 15.8226C4.15992 15.5593 3.90209 15.2285 3.72486 14.8538C3.54762 14.4791 3.45532 14.0698 3.45458 13.6552C3.45384 13.2406 3.54471 12.831 3.72062 12.4557C3.89652 12.0803 4.15313 11.7486 4.47207 11.4843C4.57635 11.3977 4.64204 11.2733 4.6547 11.1383C4.66737 11.0033 4.62595 10.8688 4.53959 10.7643C4.4906 10.7051 4.42887 10.6576 4.35903 10.6256C4.28919 10.5935 4.21307 10.5775 4.13625 10.579ZM11.9975 10.9504C12.2563 11.1309 12.5302 11.2885 12.8162 11.4216C13.0773 11.5409 13.1308 11.5904 13.1513 11.6081V16.4578H10.848V11.6081C10.8642 11.5913 10.9111 11.544 11.1742 11.4224C11.4609 11.2877 11.7363 11.1299 11.9975 10.9504ZM5.97282 11.9833C5.86633 11.9819 5.76209 12.0138 5.67465 12.0747C5.42455 12.2485 5.2194 12.4795 5.07619 12.7485C4.93297 13.0175 4.85581 13.3168 4.8511 13.6216C4.84669 13.9264 4.91485 14.2279 5.04994 14.5011C5.18503 14.7742 5.38319 15.0113 5.62795 15.1925C5.73688 15.2731 5.8733 15.307 6.00721 15.2869C6.14113 15.2667 6.26156 15.1941 6.34204 15.085C6.42251 14.976 6.45641 14.8394 6.43633 14.7053C6.41624 14.5712 6.34382 14.4506 6.23494 14.37C6.12062 14.2854 6.02807 14.1748 5.96499 14.0473C5.90192 13.9197 5.87013 13.779 5.87226 13.6367C5.8744 13.4944 5.91038 13.3546 5.97724 13.2291C6.04411 13.1035 6.1399 12.9957 6.25671 12.9146C6.36787 12.8373 6.44389 12.719 6.46799 12.5857C6.49209 12.4523 6.46231 12.3148 6.38525 12.2034C6.33898 12.1365 6.27742 12.0815 6.20568 12.0432C6.13394 12.0049 6.05411 11.9845 5.97282 11.9833ZM18.0268 11.9833C17.9455 11.9844 17.8657 12.005 17.794 12.0433C17.7222 12.0816 17.6607 12.1365 17.6144 12.2034C17.5373 12.3148 17.5075 12.4524 17.5316 12.5858C17.5557 12.7192 17.6317 12.8375 17.7429 12.9148C17.8599 12.9958 17.9557 13.1036 18.0227 13.2292C18.0896 13.3548 18.1257 13.4945 18.1278 13.6369C18.1299 13.7792 18.0981 13.92 18.035 14.0475C17.9718 14.1751 17.8792 14.2857 17.7648 14.3701C17.656 14.4508 17.5836 14.5714 17.5635 14.7054C17.5435 14.8395 17.5774 14.976 17.6578 15.085C17.7383 15.1941 17.8587 15.2666 17.9926 15.2868C18.1264 15.3069 18.2628 15.273 18.3717 15.1925C18.6165 15.0113 18.8146 14.7742 18.9497 14.5011C19.0848 14.2279 19.153 13.9264 19.1485 13.6216C19.1438 13.3168 19.0667 13.0175 18.9235 12.7485C18.7802 12.4795 18.5751 12.2485 18.325 12.0747C18.2376 12.0138 18.1333 11.9819 18.0268 11.9833ZM7.55753 17.4806H10.2681C10.2911 17.4838 10.3144 17.4854 10.3377 17.4855H13.6618C13.6851 17.4854 13.7083 17.4838 13.7314 17.4806H16.4421V20.2834H7.55776L7.55753 17.4806ZM8.49341 21.3064H15.5062V22.9774H8.49341V21.3064Z" fill="black"/>
</g>
<defs>
<clipPath id="clip0_117_1177">
<rect width="24" height="24" fill="white"/>
</clipPath>
</defs>
</svg>
