<svg width="21" height="24" viewBox="0 0 21 24" fill="none" xmlns="http://www.w3.org/2000/svg">
<path fill-rule="evenodd" clip-rule="evenodd" d="M8.32423 20.106C8.84223 20.683 9.50723 21 10.1972 21H10.1982C10.8912 21 11.5592 20.683 12.0782 20.105C12.3562 19.798 12.8302 19.773 13.1372 20.05C13.4452 20.327 13.4702 20.802 13.1932 21.109C12.3852 22.006 11.3222 22.5 10.1982 22.5H10.1962C9.07523 22.499 8.01423 22.005 7.20923 21.108C6.93223 20.801 6.95723 20.326 7.26523 20.05C7.57323 19.772 8.04723 19.797 8.32423 20.106ZM10.247 1C14.692 1 17.678 4.462 17.678 7.695C17.678 9.358 18.101 10.063 18.55 10.811C18.994 11.549 19.497 12.387 19.497 13.971C19.148 18.018 14.923 18.348 10.247 18.348C5.57103 18.348 1.34503 18.018 1.00001 14.035C0.997027 12.387 1.50003 11.549 1.94403 10.811L2.10077 10.5472C2.4867 9.88386 2.81603 9.16235 2.81603 7.695C2.81603 4.462 5.80203 1 10.247 1ZM10.247 2.5C6.75203 2.5 4.31603 5.238 4.31603 7.695C4.31603 9.774 3.73903 10.735 3.22903 11.583C2.82003 12.264 2.49703 12.802 2.49703 13.971C2.66403 15.857 3.90903 16.848 10.247 16.848C16.55 16.848 17.834 15.813 18 13.906C17.997 12.802 17.674 12.264 17.265 11.583C16.755 10.735 16.178 9.774 16.178 7.695C16.178 5.238 13.742 2.5 10.247 2.5Z" fill="black" stroke="black" stroke-width="1.2"/>
</svg>
