<svg width="32" height="32" viewBox="0 0 32 32" fill="none" xmlns="http://www.w3.org/2000/svg">
<path d="M13.2836 25.6371C13.9501 25.496 18.0117 25.496 18.6783 25.6371C19.2481 25.7687 19.8643 26.0762 19.8643 26.7476C19.8311 27.3868 19.4561 27.9535 18.938 28.3134C18.2661 28.8371 17.4777 29.1688 16.6534 29.2883C16.1976 29.3474 15.7497 29.3488 15.3097 29.2883C14.4842 29.1688 13.6957 28.8371 13.0252 28.3121C12.5057 27.9535 12.1307 27.3868 12.0976 26.7476C12.0976 26.0762 12.7138 25.7687 13.2836 25.6371ZM16.0596 2.6665C18.8332 2.6665 21.6663 3.98253 23.3493 6.16606C24.4412 7.57205 24.9421 8.97671 24.9421 11.1602V11.7283C24.9421 13.4029 25.3847 14.3899 26.3587 15.5273C27.0968 16.3653 27.3327 17.4409 27.3327 18.6079C27.3327 19.7735 26.9497 20.88 26.1825 21.7784C25.178 22.8554 23.7614 23.543 22.3157 23.6625C20.2206 23.8411 18.1242 23.9915 16 23.9915C13.8745 23.9915 11.7794 23.9015 9.68435 23.6625C8.23729 23.543 6.82071 22.8554 5.81757 21.7784C5.05031 20.88 4.66602 19.7735 4.66602 18.6079C4.66602 17.4409 4.90322 16.3653 5.64 15.5273C6.64446 14.3899 7.05791 13.4029 7.05791 11.7283V11.1602C7.05791 8.91762 7.61712 7.4512 8.76868 6.01565C10.4808 3.9221 13.2252 2.6665 15.9404 2.6665H16.0596Z" fill="black"/>
</svg>
