<svg width="25" height="24" viewBox="0 0 25 24" fill="none" xmlns="http://www.w3.org/2000/svg">
<path d="M20.5116 6.41295C19.9533 6.30513 19.4356 6.04488 19.016 5.66103C18.5963 5.27718 18.2911 4.78469 18.1341 4.23809C17.9771 3.69149 17.9744 3.1121 18.1263 2.56406C18.2782 2.01601 18.5788 1.5207 18.9948 1.13295C19.0592 1.07224 19.1056 0.994914 19.1287 0.909519C19.1519 0.824124 19.151 0.733983 19.1262 0.649053C19.1014 0.564123 19.0536 0.487711 18.988 0.428257C18.9225 0.368803 18.8418 0.328622 18.7548 0.312152C18.201 0.20267 17.6303 0.210318 17.0795 0.334605C16.5287 0.458891 16.0101 0.697065 15.5569 1.03381C15.1037 1.37056 14.726 1.79842 14.448 2.28989C14.1701 2.78136 13.9981 3.32555 13.9431 3.88748C13.8881 4.4494 13.9513 5.01663 14.1286 5.55267C14.3059 6.08871 14.5935 6.5817 14.9728 6.99995C15.3521 7.4182 15.8147 7.75245 16.3309 7.98119C16.8471 8.20994 17.4054 8.32813 17.97 8.32815C18.3508 8.32773 18.7296 8.27442 19.0956 8.16975C19.7129 7.99323 20.2785 7.67052 20.7444 7.22895C20.8088 7.16824 20.8552 7.09091 20.8783 7.00552C20.9015 6.92012 20.9006 6.82998 20.8758 6.74505C20.851 6.66012 20.8032 6.58371 20.7376 6.52426C20.6721 6.4648 20.5914 6.42462 20.5044 6.40815L20.5116 6.41295ZM18.8316 7.25295C18.4385 7.37663 18.0246 7.42032 17.6143 7.38145C17.204 7.34258 16.8057 7.22193 16.4428 7.02663C16.0799 6.83132 15.7597 6.56531 15.5013 6.24429C15.2429 5.92327 15.0513 5.55374 14.938 5.1575C14.8247 4.76127 14.7918 4.34634 14.8415 3.93722C14.8911 3.52809 15.0221 3.13304 15.2269 2.77538C15.4317 2.41772 15.706 2.10469 16.0337 1.85476C16.3613 1.60482 16.7358 1.42304 17.1348 1.32015C17.3196 1.2655 17.5093 1.22932 17.7012 1.21215C17.3935 1.69622 17.1921 2.24016 17.1105 2.80794C17.0288 3.37571 17.0687 3.95436 17.2275 4.50554C17.3864 5.05673 17.6605 5.56787 18.0318 6.00511C18.4031 6.44234 18.8631 6.79569 19.3812 7.04175C19.205 7.12906 19.021 7.19977 18.8316 7.25295Z" fill="black"/>
<path d="M22.4884 2.82972C22.4631 2.75235 22.4185 2.68268 22.3589 2.62727C22.2993 2.57185 22.2266 2.5325 22.1476 2.51292L21.3484 2.31372L20.9116 1.61292C20.8675 1.54235 20.8058 1.48444 20.7326 1.44489C20.6594 1.40534 20.5772 1.3855 20.494 1.38732C20.4128 1.38757 20.333 1.40839 20.2621 1.44784C20.1912 1.48729 20.1314 1.54409 20.0884 1.61292L19.6588 2.31372L18.8596 2.51292C18.7814 2.53401 18.7098 2.57455 18.6514 2.63076C18.5931 2.68697 18.55 2.75703 18.526 2.83441C18.5021 2.91178 18.4981 2.99397 18.5144 3.0733C18.5308 3.15263 18.567 3.22653 18.6196 3.28812L19.15 3.91932L19.0924 4.74252C19.0865 4.82373 19.1014 4.9051 19.1356 4.97897C19.1699 5.05284 19.2224 5.11678 19.2881 5.16479C19.3539 5.21279 19.4308 5.24328 19.5116 5.25338C19.5924 5.26348 19.6744 5.25286 19.75 5.22252L20.494 4.91052L21.2596 5.22012C21.335 5.25029 21.4168 5.26083 21.4974 5.25076C21.578 5.24068 21.6547 5.21032 21.7204 5.16252C21.7891 5.11679 21.8448 5.05411 21.8823 4.98054C21.9197 4.90696 21.9375 4.82499 21.934 4.74252L21.8764 3.91932L22.4068 3.28812C22.4582 3.22491 22.4926 3.14967 22.5069 3.06948C22.5212 2.98928 22.5148 2.90678 22.4884 2.82972ZM21.01 3.45132C20.9306 3.54642 20.891 3.66853 20.8996 3.79212L20.9164 4.03212L20.6764 3.93852C20.6189 3.91653 20.5579 3.90514 20.4964 3.90492C20.4349 3.9054 20.3739 3.91678 20.3164 3.93852L20.0764 4.03212L20.0956 3.79212C20.1035 3.66821 20.063 3.54606 19.9828 3.45132L19.822 3.25932L20.062 3.19692C20.1833 3.16731 20.2884 3.09154 20.3548 2.98572L20.4868 2.77452L20.6212 2.98572C20.6532 3.0384 20.6953 3.08419 20.7452 3.12044C20.795 3.1567 20.8516 3.18269 20.9116 3.19692L21.1516 3.25932L21.01 3.45132ZM10.7668 18.2521C10.7692 18.2274 10.7692 18.2025 10.7668 18.1777L10.654 16.3945L14.05 14.7289L14.1004 14.6977L14.1268 14.6785L15.5668 13.4929C15.6217 13.4478 15.6659 13.391 15.6962 13.3266C15.7265 13.2623 15.7422 13.192 15.742 13.1209V10.6369C15.7421 10.5429 15.7146 10.4509 15.6629 10.3724C15.6112 10.2939 15.5376 10.2323 15.4512 10.1952C15.3648 10.1582 15.2694 10.1473 15.1769 10.1639C15.0844 10.1806 14.9988 10.2241 14.9308 10.2889L12.838 12.2833L10.4452 13.1617L10.3564 11.7889L11.2492 9.28092L11.7292 8.02092C11.7593 7.9407 11.7674 7.85388 11.7526 7.76947C11.7378 7.68506 11.7007 7.60615 11.6452 7.54092L10.9252 6.71052L10.3852 4.48812C10.3591 4.38883 10.3019 4.30051 10.222 4.23612C10.0206 3.8102 9.70475 3.44864 9.30976 3.19181C8.91478 2.93499 8.45618 2.79301 7.98518 2.78172C6.56678 2.78172 5.41238 4.06092 5.41238 5.63532C5.40982 6.27511 5.60976 6.8993 5.98358 7.41852V9.03852L4.83638 10.6681C4.77903 10.7488 4.74802 10.8452 4.74758 10.9441V21.0241L2.34758 22.7881C2.26631 22.848 2.20599 22.932 2.17521 23.0282C2.14442 23.1243 2.14473 23.2277 2.1761 23.3237C2.20746 23.4196 2.26829 23.5032 2.34991 23.5626C2.43154 23.622 2.52982 23.6542 2.63078 23.6545H6.45878C6.69878 23.6545 9.41798 23.7697 11.9116 23.7697C13.2292 23.7697 14.4868 23.7409 15.2716 23.6521C16.9252 23.4697 17.4844 22.8337 17.6716 22.3321C17.878 21.7537 17.6716 21.0913 17.1172 20.5201C15.346 18.6961 12.55 18.3001 10.7668 18.2521ZM14.8036 12.8857L14.014 13.5289L13.69 12.8089L14.8036 11.7601V12.8857ZM6.94598 8.95212V7.03212L7.38038 6.84012V7.80012C7.38057 7.89246 7.40739 7.98277 7.45762 8.06025C7.50785 8.13772 7.57936 8.19907 7.66358 8.23692L10.1956 9.37212L9.63637 10.9465L7.45718 9.32892L6.94598 8.95212ZM10.7212 7.95132L10.5268 8.46972L8.49398 7.55772L8.35477 7.49532V6.34572L9.63878 5.41452L10.0372 7.05132C10.0545 7.12406 10.0891 7.19157 10.138 7.24812L10.7212 7.95132ZM7.98758 3.74412C8.24505 3.75248 8.49633 3.82516 8.71851 3.95553C8.94069 4.08591 9.1267 4.26983 9.25958 4.49052L7.61798 5.69052L6.44918 6.21132C6.40026 6.0273 6.37526 5.83774 6.37478 5.64732C6.37478 4.59372 7.09718 3.74412 7.98758 3.74412ZM5.38598 21.7441H7.15718L6.25958 22.7041H4.09958L5.38598 21.7441ZM16.7716 22.0081C16.6516 22.3417 16.0516 22.5985 15.178 22.6969C13.4836 22.8841 9.46838 22.7905 7.54598 22.7305L8.47718 21.7441H13.066C13.1933 21.7441 13.3154 21.6936 13.4054 21.6035C13.4954 21.5135 13.546 21.3914 13.546 21.2641C13.546 21.1368 13.4954 21.0147 13.4054 20.9247C13.3154 20.8347 13.1933 20.7841 13.066 20.7841H5.70998V11.1001L6.57398 9.87132L7.19558 10.3345L9.40358 11.9737L9.52598 13.8625C9.52485 13.8673 9.52485 13.8722 9.52598 13.8769C9.52366 13.8961 9.52366 13.9154 9.52598 13.9345C9.52461 13.9473 9.52461 13.9602 9.52598 13.9729V13.9969L9.54038 14.0257C9.54451 14.0376 9.55016 14.0489 9.55718 14.0593C9.5656 14.0773 9.57607 14.0942 9.58838 14.1097L9.60758 14.1361C9.62198 14.1505 9.63398 14.1649 9.65078 14.1793L9.67477 14.2009C9.68895 14.2135 9.70421 14.2247 9.72038 14.2345L9.75398 14.2537C9.76846 14.2623 9.78373 14.2696 9.79958 14.2753L9.84038 14.2897L9.88838 14.3017H10.1308L12.862 13.3033L13.21 14.0713L9.93398 15.6745L8.73398 16.2649L7.42838 12.9865C7.38127 12.8681 7.28907 12.7733 7.17205 12.7229C7.05502 12.6725 6.92277 12.6706 6.80438 12.7177C6.68598 12.7648 6.59115 12.857 6.54074 12.9741C6.49033 13.0911 6.48847 13.2233 6.53558 13.3417L8.03078 17.1049C8.06634 17.1942 8.12791 17.2708 8.2075 17.3247C8.28709 17.3786 8.38104 17.4074 8.47718 17.4073C8.55023 17.4069 8.62231 17.3905 8.68838 17.3593L9.72278 16.8505L9.81158 18.2401V18.2569C9.40118 18.2737 9.13718 18.3001 9.09158 18.3073C9.02854 18.3144 8.96752 18.3338 8.912 18.3645C8.85648 18.3952 8.80754 18.4365 8.76798 18.4861C8.72842 18.5357 8.69902 18.5926 8.68145 18.6535C8.66388 18.7145 8.65848 18.7783 8.66558 18.8413C8.67267 18.9044 8.6921 18.9654 8.72278 19.0209C8.75345 19.0764 8.79476 19.1254 8.84435 19.1649C8.89393 19.2045 8.95083 19.2339 9.01178 19.2514C9.07273 19.269 9.13654 19.2744 9.19958 19.2673C9.24758 19.2673 14.0524 18.7537 16.4332 21.1873C16.7236 21.4753 16.8484 21.7825 16.7716 22.0009V22.0081Z" fill="black"/>
</svg>
