<svg width="25" height="24" viewBox="0 0 25 24" fill="none" xmlns="http://www.w3.org/2000/svg">
<path fill-rule="evenodd" clip-rule="evenodd" d="M12.073 2C17.443 2 21.811 6.368 21.811 11.738C21.811 14.2715 20.8387 16.5823 19.2476 18.3165L22.3784 21.4407C22.6714 21.7337 22.6724 22.2077 22.3794 22.5007C22.2334 22.6487 22.0404 22.7217 21.8484 22.7217C21.6574 22.7217 21.4654 22.6487 21.3184 22.5027L18.1498 19.343C16.4831 20.6778 14.3697 21.477 12.073 21.477C6.70298 21.477 2.33398 17.108 2.33398 11.738C2.33398 6.368 6.70298 2 12.073 2ZM12.073 3.5C7.52998 3.5 3.83398 7.195 3.83398 11.738C3.83398 16.281 7.52998 19.977 12.073 19.977C16.615 19.977 20.311 16.281 20.311 11.738C20.311 7.195 16.615 3.5 12.073 3.5Z" fill="white"/>
</svg>
